<?xml version="1.0" encoding="utf-8"?>
<!-- Generator: Adobe Illustrator 22.0.1, SVG Export Plug-In . SVG Version: 6.00 Build 0)  -->
<svg version="1.1" xmlns="http://www.w3.org/2000/svg" xmlns:xlink="http://www.w3.org/1999/xlink" x="0px" y="0px"
	 viewBox="0 0 1000 700" style="enable-background:new 0 0 1000 700;" xml:space="preserve">
<style type="text/css">
	.st0{opacity:0.7;}
	.st1{clip-path:url(#SVGID_2_);fill:url(#SVGID_3_);}
	.st2{fill:#F5D2C4;}
	.st3{fill:none;}
	.st4{fill:#575756;}
	.st5{font-family:'ArialMT';}
	.st6{font-size:13.9598px;}
	.st7{fill:none;stroke:#1D1D1B;stroke-width:0.35;stroke-linecap:round;stroke-linejoin:round;}
	.st8{fill:#1D1D1B;}
	.st9{fill:#CD1719;}
</style>
<g id="Layer_1">
	
		<image style="overflow:visible;" width="1000" height="650" xlink:href="../../ARTE/006/atleta.png"  transform="matrix(1 0 0 1 0 5.9957)">
	</image>
	<g class="st0">
		<defs>
			<rect id="SVGID_1_" y="628" class="st0" width="1000" height="68"/>
		</defs>
		<clipPath id="SVGID_2_">
			<use xlink:href="#SVGID_1_"  style="overflow:visible;"/>
		</clipPath>
		
			<radialGradient id="SVGID_3_" cx="799.9352" cy="1552.1814" r="308.3456" gradientTransform="matrix(1.1774 0 0 0.1373 -435.8827 415.5201)" gradientUnits="userSpaceOnUse">
			<stop  offset="0" style="stop-color:#BFBCBC"/>
			<stop  offset="0.1334" style="stop-color:#C1BEBE"/>
			<stop  offset="0.3954" style="stop-color:#D0CECE"/>
			<stop  offset="0.903" style="stop-color:#F7F6F6"/>
			<stop  offset="1" style="stop-color:#FFFFFF"/>
		</radialGradient>
		<ellipse class="st1" cx="506" cy="628.6" rx="492.4" ry="67.8"/>
	</g>
	<path class="st2" d="M446,195.2c0,0,3.3-6.1,3.5-7.1c0.2-1.1-2.1-1.2-4.2,0.3c-2.1,1.5-10.5,7.4-10.5,7.4L446,195.2z"/>
	<path class="st2" d="M526,180.2c0.9,1.1,3.3,1.7,4.2,1.7s3.3,0.3-0.5,2.4s-7.4,4.8-7.4,4.8l-10.2,0.6c0,0,4.2-5,7.7-7.1
		C523.4,180.5,526,180.2,526,180.2z"/>
</g>
<g id="textosadicionales">
	<g>
		<rect x="706.8" y="563.3" class="st3" width="149.2" height="46.7"/>
		<text transform="matrix(1 0 0 1 706.7783 573.2755)"><tspan x="0" y="0" class="st4 st5 st6">Zapatillas de base lisa, </tspan><tspan x="0" y="17.9" class="st4 st5 st6">para una mejor </tspan><tspan x="0" y="35.9" class="st4 st5 st6">recepción.</tspan></text>
	</g>
	<g>
		<rect x="249.5" y="330.4" class="st3" width="155.8" height="64.1"/>
		<text transform="matrix(1 0 0 1 249.4947 340.4159)"><tspan x="0" y="0" class="st4 st5 st6">Butarca, un entero de </tspan><tspan x="0" y="17.9" class="st4 st5 st6">lycra ajustado al cuerpo. </tspan><tspan x="0" y="35.9" class="st4 st5 st6">No debe cubrir codos ni </tspan><tspan x="0" y="53.8" class="st4 st5 st6">rodillas.</tspan></text>
	</g>
	<g>
		<rect x="585.5" y="253.7" class="st3" width="111" height="66.3"/>
		<text transform="matrix(1 0 0 1 585.5051 263.7184)"><tspan x="0" y="0" class="st4 st5 st6">Otras rendas </tspan><tspan x="0" y="17.9" class="st4 st5 st6">deben ir bajo la </tspan><tspan x="0" y="35.9" class="st4 st5 st6">butarca, sin cubrir </tspan><tspan x="0" y="53.8" class="st4 st5 st6">codos ni rodillas.</tspan></text>
	</g>
	<g>
		<rect x="585.5" y="42.7" class="st3" width="100.8" height="83"/>
		<text transform="matrix(1 0 0 1 585.5051 52.674)"><tspan x="0" y="0" class="st4 st5 st6">El uso de </tspan><tspan x="0" y="17.9" class="st4 st5 st6">magnesio es </tspan><tspan x="0" y="35.9" class="st4 st5 st6">opcional, para </tspan><tspan x="0" y="53.8" class="st4 st5 st6">un mejor agarre </tspan><tspan x="0" y="71.8" class="st4 st5 st6">en la barra. </tspan></text>
	</g>
	<g>
		<rect x="263.5" y="42.7" class="st3" width="172.5" height="46.9"/>
		<text transform="matrix(1 0 0 1 263.4947 52.6734)"><tspan x="0" y="0" class="st4 st5 st6">Guantes y huinchas, </tspan><tspan x="0" y="17.9" class="st4 st5 st6">permitidas para la </tspan><tspan x="0" y="35.9" class="st4 st5 st6">seguridad de la atleta.</tspan></text>
	</g>
	<g>
		<rect x="669" y="354.3" class="st3" width="184.3" height="28.4"/>
		<text transform="matrix(1 0 0 1 669.0051 364.2542)"><tspan x="0" y="0" class="st4 st5 st6">Cinturón, no exigible pero </tspan><tspan x="0" y="17.9" class="st4 st5 st6">recomendable por seguridad.</tspan></text>
	</g>
	<g>
		<g>
			<line class="st7" x1="638.5" y1="568.8" x2="700.5" y2="568.8"/>
			<g>
				<circle class="st8" cx="638.5" cy="568.8" r="0.5"/>
			</g>
		</g>
	</g>
	<g>
		<g>
			<line class="st7" x1="556" y1="359.8" x2="662.5" y2="359.8"/>
			<g>
				<circle class="st8" cx="556" cy="359.8" r="0.5"/>
			</g>
		</g>
	</g>
	<g>
		<g>
			<line class="st7" x1="467" y1="336.3" x2="389.5" y2="336.3"/>
			<g>
				<circle class="st8" cx="467" cy="336.3" r="0.5"/>
			</g>
		</g>
	</g>
	<g>
		<g>
			<line class="st7" x1="611.6" y1="190.7" x2="611.6" y2="132.2"/>
			<g>
				<path class="st8" d="M612.1,190.7c0,0.3-0.2,0.5-0.5,0.5s-0.5-0.2-0.5-0.5c0-0.3,0.2-0.5,0.5-0.5S612.1,190.4,612.1,190.7z"/>
			</g>
		</g>
	</g>
	<g>
		<g>
			<line class="st7" x1="320.9" y1="190.7" x2="320.9" y2="96.7"/>
			<g>
				<circle class="st8" cx="320.9" cy="190.7" r="0.5"/>
			</g>
		</g>
	</g>
	<path class="st2" d="M637.4,550.9c2,0,3.7,1.1,4.1,2.2c0.4,1.1,0.6,1.8,2.2,2.1c1.6,0.3,2.9,0.6,1.8,1.7c-1.1,1.1-2.2,3.2-1.1,3.3
		c1.1,0.1,1.3,0.7,1.4,2c0.1,1.3,2.2,4.6,3.4,7.5c1.2,2.9,2.1,3.6,2.2,4.9c0.1,1.3-0.1,2.5-0.1,2.5s2.1,4,3.1,6s0.8,1.2,1.2,2.6
		s1.6,4.2,3.7,8.1s4.2,6.8,4.9,8.9c0.7,2.2,0.1,3.4,0.2,6.1c0.1,2.7,1.1,3.2,0.3,4.9c-0.8,1.8-6.1,9.1-7.4,10.7
		c-1.3,1.6-2.1,1.9-2.3,2.2c-0.2,0.3-0.3,1-3.8,1c-3.5,0-40.8,0-42.5,0c-1.8,0-2.2-2.6-2-3.9c0.2-1.3,0.7-2.5,0.1-3.6
		c-0.7-1.1-3.2-1.6-2.6-5c0.6-3.4,1.7-6.7,2.1-8.5c0.4-1.8,0.2-2.8,0.7-4c0.6-1.2,1.4-2.3,1.6-5.4c0.2-3-0.2-2.9-0.8-4.1
		c-0.6-1.2-1.8-1.3-1.6-2.2c0.2-0.9,0.2-2.7-0.3-3.2s-1.6-0.2-2.8-2.6s-3-3.7-3.5-5.4c-0.5-1.7-0.8-2.2-1.9-3.8
		c-1.1-1.7-2.4-2.9-2.3-4.2c0.1-1.3-1.3-4.6,2.1-6.2c3.4-1.6,4.7-2.3,5.1-2.9c0.4-0.6,6-3.3,9.7-4.5c3.7-1.2,6.9-2.8,8.7-2.4
		c1.8,0.4,2.7,0.2,3.8,0.2c1.1-0.1,1.6,0,2.7,0.4s0.9,0.3,2.6,0.5c1.8,0.2,2.6,1,3.5,0.7c0.9-0.3,1.9-1.3,2.8-3.4
		C637.2,552,637.4,550.9,637.4,550.9z"/>
	<path class="st2" d="M447.1,534.2c0,0,0.7-2.6,6.1-2.6c5.4,0,4.7,2.3,6.6,2.7c1.8,0.4,1.6,1,2.7,2.6s3.5,4,5,5.8s1,3,4.2,7.8
		c3.1,4.8,9,12.7,12.9,15.6c3.8,2.9,4.1,4.4,4.7,6.7c0.6,2.3,1,11-8.9,17.5s-29.6,13.4-36.7,17.5c-7,4.2-15.9,14.2-18.4,16.9
		c-2.6,2.7-2.2,3.2-4.9,3.1c-2.7-0.1-45.8,0-48.3,0s-6-2.6-5.6-5.9c0.4-3.4,1.1-4.8,1.9-6.6c0.8-1.8,1.4-4,2.1-5.1s3.8-6.4,6.6-8
		c2.7-1.6,3.4-2.2,5.8-2.6c2.5-0.5,3.8-1.2,3.8-1.2l-1.6-3.1l3.5-0.9c0,0-2.5-3.4-2.5-5.7c0-2.3,1-4.2,2.7-5.4
		c1.8-1.2,3.8-1.5,3.8-1.5l6.2-6.3c0,0-0.6,0.1-0.6-2.6c0-2.6-1-10.8,0.2-12.4c1.1-1.6,1.2-3,2.2-2.1s2.9,3.4,7.5,3.8
		c4.6,0.4,9.8,0.6,10.1,0.5s6.5-2.2,11.1-2.8c4.6-0.6,5.9-1,8.4-1.6c2.5-0.6,6.9-0.1,9.4-1.4c2.5-1.4,7.9-6.5,8.6-10.2
		c0.7-3.7,1.4-7.3-0.8-8.8s-4.9-2.9-6.1-3.3C447.7,534.2,447.1,534.2,447.1,534.2z"/>
	<path class="st2" d="M295.7,206.3c0,0-0.9-2,0.2-3.6c1.1-1.6,2.8-2.8,2.8-4.4c0.1-1.5,1-3.4,1.8-3.8s7.9-5.5,10.4-6.6
		c2.6-1.1,3.7-2.5,4.6-2.5s3.7,0.3,5.4,0c1.7-0.3,6.9-0.1,11,1.2s4,1.9,6.6,3.6s6,5.4,6.7,7.4c0.8,2,1.1,8.3,1.1,10.8
		s-1.6,8.2-3.7,11.9c-2.1,3.7-2,5.2-4.1,6.5s-11.6,4-11.6,4s2.4-10.8,0.4-15.7c-2-4.8-8.6-10.9-13.9-12.7c-5.3-1.8-11-2-13.9-0.3
		C296.9,203.8,295.7,206.3,295.7,206.3z"/>
	<path class="st2" d="M592.5,384.5c-5.5-7.3-8.5-7.4-13.3-9.1c-2.6-0.9-8.1-2.2-12.5-3.2c0.1,0.7,0.1,1.2-0.2,1.4
		c-0.7,0.5-12.5,7.1-23.6,10c0,0-1.6,5.5-7.5,7.6c-5.9,2.1-11.6,2.7-13.5,2.9c-1.9,0.2-4.9,0-4.9,0s0.8,2.4-0.7,3.1
		c-1.5,0.7-4.4,2.1-5.3,2.1c-0.8,0-1.4-0.6-2.1-2c-0.7-1.4-1-1.9-1-1.9l-7.5,0.5c0,0,0.9,1.7-0.3,2.1c-1.2,0.4-3.7,1.7-4.8,1.9
		c-1.1,0.2-2.6-0.3-3-0.8c-0.4-0.5-1.1-2-1.1-2s-8.7,1.8-13.3,2c-4.6,0.2-5.4,0.1-5.4,0.1s0.3,1.6-2.5,1.6s-4.6-0.2-5.3-1.7
		c-0.6-1.5-0.8-3-0.8-3s-3.3-0.6-8.1-2.1c-4.7-1.5-7.2-3.2-7.2-3.2s-2.6,0.5-4.3,0.3c-1.7-0.2-3.9-1.2-3.8-3.3c0-0.7,0-1.8-0.1-2.9
		c-0.1,0-0.1,0.1-0.1,0.1s-3.9,2.7-5.9,4.5s-2.9,2.3-2.9,3.8c0,1.5-1.1,3.3-1.2,5.6c-0.2,2.3-1.1,2-1.8,3.8c-0.8,1.8,0,2.1,0,2.1
		l-4.2,1.1c0,0-12.1,1.4-29.5,2c-17.4,0.6-36.2,4.5-36.2,4.5s14.2,7.9,28.8,37.1c14.5,29.2,16.1,38.3,16.8,44.8s-0.3,14.8-0.9,17
		c-0.6,2.1-1.5,2.9-1.5,2.9s28.6,2.6,48.9,0.9c20.3-1.7,34.2-4.4,41.1-6.5c6.8-2.1,15.3-4.4,19.8-5.8c4.5-1.4,5-1.4,10.3-0.2
		s16.2,5.2,23,5.5c6.8,0.3,14.7-1.1,14.7-1.1s-4.7-4.4-7.6-10.6c0,0-6.4,1.1-19.1-4.4c-12.7-5.5-17.4-19.1-18.9-24.8
		c-1.5-5.8-0.9-21.5,2.7-31.2c3.6-9.7,8.3-25.2,15.8-34.4c7.4-9.2,17.6-18,29.1-18.5s23.8,0.6,39.5,15.8
		C600.8,398.9,597.9,391.7,592.5,384.5z"/>
	<path class="st2" d="M568.9,306.7c0,0,1.1-0.8,1.1-2.1s-2.3-3-2.3-3s0.3-0.8,1.5-1.4c1.2-0.6,0.9-3.2,0.9-3.2s-0.6-0.3-2,0.3
		c-1.4,0.6-8,0.8-15.5,0.3c-7.4-0.5-20.5-4.1-31.1-9.8s-14.7-13.2-14.7-13.2s-3-0.8-5.9-0.9c-2.9-0.2-13.3-3.6-15.9-4.8
		s-9.2-9.7-9.7-12.4c-0.5-2.7-2.3-13.2,4.5-25.2c6.8-12,20.6-25.2,20.6-25.2s-4.2,0.8-7.7,3c-3.5,2.3-9.1,11.7-11.7,16.5
		s-9.7,18.8-10.9,22c-1.2,3.2-11.2,19.5-18.3,22.9c-7.1,3.3-18,3-24.8-2c-6.8-5-7-14.2-4.7-27c2.3-12.7,10.5-30.2,10.5-30.2
		s-0.3-2.3-2.4-3.2s-4.5-1.7-4.5-1.7s-1.8,2.6-2.6,3.5c-0.8,0.9-6.2,10.6-7.3,12.6c-1.1,2-0.6,3.2-0.9,6.2c-0.3,3-2.3,4.2-3.6,8
		s-6.2,27.6-6.8,31.8c-0.6,4.2-2.4,25.2,5,36.5c7.4,11.4,18.2,18,18.2,18s-0.8,2.3,0.2,4.8c0.9,2.6,4.4,2.4,4.4,2.4
		s-1.8,4.7-2.1,7.4c-0.3,2.7,0.6,2,1.5,4.8s0,3,1.1,6.8c1.1,3.8,1.2,7.9,1.7,9.4c0.4,1.3,5.5,5.2,7.7,6.9c0.2-0.8,0.4-1.3,0.4-1.3
		l17,3.9c0,0,1-1.9,3.7-1.3c2.7,0.6,5.6,1.5,5.6,1.8c0,0.3,9-0.3,11.6-0.6s4.4-0.8,4.4-0.8s-0.7-2.4-0.5-2.6c0.2-0.2,5.5-1,6.9-1.3
		c1.4-0.3,2.3-0.1,2.4,0.7c0.1,0.8,0.6,1.6,0.6,1.6s-0.4-1,4.6-0.6c5.1,0.4,7.6-1.6,7.6-1.6s-0.3-1.4,0.6-2.3s1.5-1.7,1.5-1.7
		s5.1-0.9,5.8-0.9c0.7,0,0.7,0.7,0.7,1.4c0,0.7,0,1.1,0,1.1s15.5-4.1,20.3-6c4.8-1.8,8.2-3.7,8.2-3.7s2.6,0.1,6.4-2.2
		c3.7-2.3,9.1-8,9.1-8s0,0,0.1,0.1c0.7-1.9,1.7-3.3,2.5-3.7c1.2-0.6,1.7-1.4,4.2-8.2c2.6-6.8,1.4-10.6,2.7-13.2
		c1.4-2.6,0.3-2-0.2-3.5c-0.5-1.5-0.9-2-0.9-3.5C567.5,308,568.9,306.7,568.9,306.7z"/>
	<path class="st9" d="M559,341.4c0,0,1.8,1.5,2.1,5.3c0.3,3.8,1.6,11.8,2.9,16.1s1.4,5.1,1.9,6.6c0.5,1.5,1.2,3.7,0.5,4.2
		s-12.5,7.1-23.6,10c0,0-1.6,5.5-7.5,7.6c-5.9,2.1-11.6,2.7-13.5,2.9c-1.9,0.2-4.9,0-4.9,0s0.8,2.4-0.7,3.1
		c-1.5,0.7-4.4,2.1-5.3,2.1s-1.4-0.6-2.1-2s-1-1.9-1-1.9l-7.5,0.5c0,0,0.9,1.7-0.3,2.1s-3.7,1.7-4.8,1.9c-1.1,0.2-2.6-0.3-3-0.8
		c-0.4-0.5-1.1-2-1.1-2s-8.7,1.8-13.3,2c-4.6,0.2-5.4,0.1-5.4,0.1s0.3,1.6-2.5,1.6c-2.8,0-4.6-0.2-5.3-1.7c-0.6-1.5-0.8-3-0.8-3
		s-3.3-0.6-8.1-2.1c-4.7-1.5-7.2-3.2-7.2-3.2s-2.6,0.5-4.3,0.3s-3.9-1.2-3.8-3.3c0.1-2.1-0.4-6.4-0.3-9.8c0.1-3.4,1.2-5.3,1.5-8.3
		c0.3-3,1-5.1,1-5.1l17,3.9c0,0,1-1.9,3.7-1.3c2.7,0.6,5.6,1.5,5.6,1.8s9-0.3,11.6-0.6c2.6-0.3,4.4-0.8,4.4-0.8s-0.7-2.4-0.5-2.6
		c0.2-0.2,5.5-1,6.9-1.3c1.4-0.3,2.3-0.1,2.4,0.7c0.1,0.8,0.6,1.6,0.6,1.6s-0.4-1,4.6-0.6s7.6-1.6,7.6-1.6s-0.3-1.4,0.6-2.3
		s1.5-1.7,1.5-1.7s5.1-0.9,5.8-0.9s0.7,0.7,0.7,1.4s0,1.1,0,1.1s15.5-4.1,20.3-6c4.8-1.8,8.2-3.7,8.2-3.7s2.6,0.1,6.4-2.2
		C553.6,347.1,559,341.4,559,341.4z"/>
	<path class="st9" d="M381.6,209.4c0,0-3.4,16,2.2,34.9c5.7,19,9.9,31.5,9.9,31.5l10.7-2.8c0,0,2-23.4,3.6-33.5
		c1.6-10.1,8.9-24.6,10.7-28.5c1.8-3.8,2.2-5.3,2.2-5.3s-12.3-4.2-21.6-2.6C390.1,204.7,381.6,209.4,381.6,209.4z"/>
	<path class="st9" d="M440.2,209.8l5.9-0.2c0,0-1.2,13.3,2.2,18.4c3.4,5.1,9.1,2.8,14.3,0c5.3-2.8,15.2-13.3,21.4-17.6
		c6.3-4.2,13.7-8.9,13.7-8.9s-8.5,4.8-15.2,16.4c-6.7,11.5-18.2,33.7-23.4,39.6c-5.3,5.9-17.6,12.3-24.6,8.5s-8.5-13.5-5.5-24.4
		C432.1,230.6,440.2,209.8,440.2,209.8z"/>
	<path class="st9" d="M545.2,235.6c0,0,3-10.3,8.9-18.4s10.5-10.9,10.5-10.9s10.7,8.5,12.5,20.2s-2.6,21.6-2.6,21.6
		s4.4,5.1,1.6,19.4c-2.8,14.3-7.5,25-7.5,25s-12.3,4.2-27.5,1c-15.2-3.2-29.9-19.8-29.9-19.8s13.9-5.3,21.2-6.9
		c7.3-1.6,22.2-5.5,28.5-8.3c6.3-2.8,8.1-9.7,7.5-12.5c-0.6-2.8-6.9-7.1-11.3-8.5C552.7,236.2,545.2,235.6,545.2,235.6z"/>
	<path class="st2" d="M602.2,175.4c0,0,3.9-1.8,7.2-0.7c3.3,1.1,5.2,2.1,7.6,1.9c2.4-0.2,3-1.7,3.5-0.2c0.5,1.5,0.8,1.9,0.6,2.9
		c-0.2,1-0.5,1.9-0.5,1.9l-13,0.7l14.5,14.1l9.8-0.3c0,0-0.5,2.6-3.4,6.1c-2.9,3.5-3.9,6.4-5.9,6.8c-1.9,0.3-5.2,0.3-7.7,0.3
		c-2.5,0-5-0.8-5.9,0c-0.9,0.8-3,1.2-4.8,1.1c-1.8-0.1-3.8-1.5-5.7-0.8s-3.4,1.5-5.4,1.4s-4.6,0.9-8.5,0c-3.8-0.9-5.4-3.3-5.9-4.8
		c-0.5-1.6-2-2.4-2-2.4s10-1.7,14.9-3.6s8.2-10.4,9-13.5C601.5,183.1,602.2,175.4,602.2,175.4z"/>
</g>
</svg>
