<?xml version="1.0" encoding="utf-8"?>
<!-- Generator: Adobe Illustrator 22.0.1, SVG Export Plug-In . SVG Version: 6.00 Build 0)  -->
<svg version="1.1" id="Layer_1" xmlns="http://www.w3.org/2000/svg" xmlns:xlink="http://www.w3.org/1999/xlink" x="0px" y="0px"
	 viewBox="0 0 815 440" style="enable-background:new 0 0 815 440;" xml:space="preserve">
<style type="text/css">
	.st0{fill:#CD1719;}
	.st1{fill:#9D9D9C;}
	.st2{fill:url(#SVGID_1_);}
	.st3{fill:url(#SVGID_2_);}
	.st4{fill:url(#SVGID_3_);}
	.st5{fill:url(#SVGID_4_);}
	.st6{fill:url(#SVGID_5_);}
	.st7{fill:url(#SVGID_6_);}
	.st8{fill:#FFFFFF;}
	.st9{font-family:'RobotoSlab-Regular';}
	.st10{font-size:29px;}
	.st11{fill:url(#SVGID_7_);}
	.st12{fill:url(#SVGID_8_);}
	.st13{fill:url(#SVGID_9_);}
	.st14{fill:url(#SVGID_10_);}
	.st15{fill:url(#SVGID_11_);}
	.st16{fill:url(#SVGID_12_);}
	.st17{fill:none;}
	.st18{font-family:'ArialMT';}
	.st19{font-size:17px;}
	.st20{font-family:'Arial-BoldMT';}
</style>
<g>
	<rect class="st0" width="815" height="440"/>
	<g>
		<path class="st1" d="M599.3,119.8l-87.8-50.7l-87.8,50.6l-0.1,101.4l87.8,50.7l87.8-50.6L599.3,119.8z M490.1,207.5
			c-20.4-11.8-27.4-38-15.6-58.4c11.8-20.4,38-27.4,58.4-15.6s27.4,38,15.6,58.4C536.7,212.3,510.6,219.3,490.1,207.5z"/>
		<g>
			
				<linearGradient id="SVGID_1_" gradientUnits="userSpaceOnUse" x1="3433.5076" y1="2606.5635" x2="3433.5076" y2="2596.2866" gradientTransform="matrix(-0.8658 -0.5004 0.5004 -0.8658 2238.2361 4044.2026)">
				<stop  offset="0" style="stop-color:#9D9D9C"/>
				<stop  offset="0.4214" style="stop-color:#DADADA"/>
			</linearGradient>
			<path class="st2" d="M516.1,50l97.6,56.4c2.5,1.4,5.6,0.6,7-1.9l0,0c1.4-2.5,0.6-5.6-1.9-7l-97.6-56.4c-2.5-1.4-5.6-0.6-7,1.9v0
				C512.8,45.4,513.6,48.5,516.1,50z"/>
			
				<linearGradient id="SVGID_2_" gradientUnits="userSpaceOnUse" x1="3100.8684" y1="-569.9652" x2="3100.8684" y2="-586.9567" gradientTransform="matrix(0.5004 -0.8658 0.8658 0.5004 -431.0799 3078.7471)">
				<stop  offset="0" style="stop-color:#575756"/>
				<stop  offset="0.7386" style="stop-color:#B2B2B2"/>
			</linearGradient>
			<path class="st3" d="M614.9,96.2l-4.9,8.4c-1.4,2.4-0.6,5.5,1.9,6.9l5.9,3.4c2.4,1.4,5.5,0.6,6.9-1.9l4.9-8.4
				c1.4-2.4,0.6-5.5-1.9-6.9l-5.9-3.4C619.4,92.9,616.3,93.7,614.9,96.2z"/>
			
				<linearGradient id="SVGID_3_" gradientUnits="userSpaceOnUse" x1="3100.8684" y1="-691.7076" x2="3100.8684" y2="-708.6991" gradientTransform="matrix(0.5004 -0.8658 0.8658 0.5004 -431.0799 3078.7471)">
				<stop  offset="0" style="stop-color:#575756"/>
				<stop  offset="0.7386" style="stop-color:#B2B2B2"/>
			</linearGradient>
			<path class="st4" d="M509.5,35.2l-4.9,8.4c-1.4,2.4-0.6,5.5,1.9,6.9l5.9,3.4c2.4,1.4,5.5,0.6,6.9-1.9l4.9-8.4
				c1.4-2.4,0.6-5.5-1.9-6.9l-5.9-3.4C514,32,510.9,32.8,509.5,35.2z"/>
		</g>
		
			<linearGradient id="SVGID_4_" gradientUnits="userSpaceOnUse" x1="3092.0811" y1="-625.728" x2="3092.0811" y2="-652.9363" gradientTransform="matrix(0.5004 -0.8658 0.8658 0.5004 -431.0799 3078.7471)">
			<stop  offset="0" style="stop-color:#575756"/>
			<stop  offset="0.7386" style="stop-color:#B2B2B2"/>
		</linearGradient>
		<path class="st5" d="M562,55.8l-22.1,38.3c-2.1,3.6-0.9,8.2,2.8,10.3l10.5,6.1c3.6,2.1,8.2,0.9,10.3-2.8l22.1-38.3
			c2.1-3.6,0.9-8.2-2.8-10.3l-10.5-6.1C568.8,51,564.1,52.2,562,55.8z"/>
		
			<linearGradient id="SVGID_5_" gradientUnits="userSpaceOnUse" x1="275.7677" y1="-366.4503" x2="459.0681" y2="-366.4503" gradientTransform="matrix(0.8658 0.5004 -0.5004 0.8658 10.0212 303.8394)">
			<stop  offset="0" style="stop-color:#B2B2B2"/>
			<stop  offset="0.7386" style="stop-color:#DADADA"/>
		</linearGradient>
		<path class="st6" d="M557.4,91.1c-43.8-25.3-99.9-10.3-125.2,33.5s-10.3,99.9,33.5,125.2s99.9,10.3,125.2-33.5
			C616.2,172.5,601.2,116.4,557.4,91.1z M490.1,207.5c-20.4-11.8-27.4-38-15.6-58.4c11.8-20.4,38-27.4,58.4-15.6
			c20.4,11.8,27.4,38,15.6,58.4C536.7,212.3,510.6,219.3,490.1,207.5z"/>
		
			<linearGradient id="SVGID_6_" gradientUnits="userSpaceOnUse" x1="299.1019" y1="-366.4503" x2="435.7339" y2="-366.4503" gradientTransform="matrix(0.8658 0.5004 -0.5004 0.8658 10.0212 303.8394)">
			<stop  offset="0.2614" style="stop-color:#DADADA"/>
			<stop  offset="1" style="stop-color:#B2B2B2"/>
		</linearGradient>
		<path class="st7" d="M545.7,111.3c-32.7-18.9-74.5-7.7-93.3,25s-7.7,74.5,25,93.3s74.5,7.7,93.3-25S578.4,130.2,545.7,111.3z
			 M480.3,224.4c-29.8-17.2-40-55.3-22.8-85.1s55.3-40,85.1-22.8s40,55.3,22.8,85.1C548.2,231.4,510.1,241.6,480.3,224.4z"/>
	</g>
	<g>
		<text transform="matrix(1 0 0 1 470.4725 182.0184)" class="st8 st9 st10">0,25 k</text>
	</g>
	<g>
		<text transform="matrix(1 0 0 1 235.8059 240.685)" class="st8 st9 st10">0,25 k</text>
	</g>
	<g>
		<g>
			<path class="st1" d="M363.9,179.6l-87.8-50.7l-87.8,50.6l-0.1,101.4l87.8,50.7l87.8-50.6L363.9,179.6z M254.7,267.2
				c-20.4-11.8-27.4-38-15.6-58.4c11.8-20.4,38-27.4,58.4-15.6s27.4,38,15.6,58.4C301.2,272.1,275.1,279.1,254.7,267.2z"/>
			<g>
				
					<linearGradient id="SVGID_7_" gradientUnits="userSpaceOnUse" x1="3607.4407" y1="2436.968" x2="3607.4407" y2="2426.6909" gradientTransform="matrix(-0.8658 -0.5004 0.5004 -0.8658 2238.2361 4044.2026)">
					<stop  offset="0" style="stop-color:#9D9D9C"/>
					<stop  offset="0.4214" style="stop-color:#DADADA"/>
				</linearGradient>
				<path class="st11" d="M280.6,109.8l97.6,56.4c2.5,1.4,5.6,0.6,7-1.9l0,0c1.4-2.5,0.6-5.6-1.9-7l-97.6-56.4
					c-2.5-1.4-5.6-0.6-7,1.9l0,0C277.3,105.2,278.1,108.3,280.6,109.8z"/>
				
					<linearGradient id="SVGID_8_" gradientUnits="userSpaceOnUse" x1="2931.2729" y1="-743.8983" x2="2931.2729" y2="-760.8898" gradientTransform="matrix(0.5004 -0.8658 0.8658 0.5004 -431.0799 3078.7471)">
					<stop  offset="0" style="stop-color:#575756"/>
					<stop  offset="0.7386" style="stop-color:#B2B2B2"/>
				</linearGradient>
				<path class="st12" d="M379.5,155.9l-4.9,8.4c-1.4,2.4-0.6,5.5,1.9,6.9l5.9,3.4c2.4,1.4,5.5,0.6,6.9-1.9l4.9-8.4
					c1.4-2.4,0.6-5.5-1.9-6.9l-5.9-3.4C384,152.7,380.9,153.5,379.5,155.9z"/>
				
					<linearGradient id="SVGID_9_" gradientUnits="userSpaceOnUse" x1="2931.2729" y1="-865.6407" x2="2931.2729" y2="-882.6322" gradientTransform="matrix(0.5004 -0.8658 0.8658 0.5004 -431.0799 3078.7471)">
					<stop  offset="0" style="stop-color:#575756"/>
					<stop  offset="0.7386" style="stop-color:#B2B2B2"/>
				</linearGradient>
				<path class="st13" d="M274.1,95l-4.9,8.4c-1.4,2.4-0.6,5.5,1.9,6.9l5.9,3.4c2.4,1.4,5.5,0.6,6.9-1.9l4.9-8.4
					c1.4-2.4,0.6-5.5-1.9-6.9l-5.9-3.4C278.6,91.8,275.5,92.6,274.1,95z"/>
			</g>
			
				<linearGradient id="SVGID_10_" gradientUnits="userSpaceOnUse" x1="2922.4856" y1="-799.6611" x2="2922.4856" y2="-826.8693" gradientTransform="matrix(0.5004 -0.8658 0.8658 0.5004 -431.0799 3078.7471)">
				<stop  offset="0" style="stop-color:#575756"/>
				<stop  offset="0.7386" style="stop-color:#B2B2B2"/>
			</linearGradient>
			<path class="st14" d="M326.6,115.6l-22.1,38.3c-2.1,3.6-0.9,8.2,2.8,10.3l10.5,6.1c3.6,2.1,8.2,0.9,10.3-2.8l22.1-38.3
				c2.1-3.6,0.9-8.2-2.8-10.3l-10.5-6.1C333.3,110.8,328.7,112,326.6,115.6z"/>
			
				<linearGradient id="SVGID_11_" gradientUnits="userSpaceOnUse" x1="101.8346" y1="-196.8548" x2="285.135" y2="-196.8548" gradientTransform="matrix(0.8658 0.5004 -0.5004 0.8658 10.0212 303.8394)">
				<stop  offset="0" style="stop-color:#B2B2B2"/>
				<stop  offset="0.7386" style="stop-color:#DADADA"/>
			</linearGradient>
			<path class="st15" d="M321.9,150.9c-43.8-25.3-99.9-10.3-125.2,33.5s-10.3,99.9,33.5,125.2s99.9,10.3,125.2-33.5
				S365.7,176.2,321.9,150.9z M254.7,267.2c-20.4-11.8-27.4-38-15.6-58.4c11.8-20.4,38-27.4,58.4-15.6c20.4,11.8,27.4,38,15.6,58.4
				C301.2,272.1,275.1,279.1,254.7,267.2z"/>
			
				<linearGradient id="SVGID_12_" gradientUnits="userSpaceOnUse" x1="125.1688" y1="-196.8548" x2="261.8008" y2="-196.8548" gradientTransform="matrix(0.8658 0.5004 -0.5004 0.8658 10.0212 303.8394)">
				<stop  offset="0.2614" style="stop-color:#DADADA"/>
				<stop  offset="1" style="stop-color:#B2B2B2"/>
			</linearGradient>
			<path class="st16" d="M310.2,171.1c-32.7-18.9-74.5-7.7-93.3,25s-7.7,74.5,25,93.3s74.5,7.7,93.3-25S342.9,190,310.2,171.1z
				 M244.9,284.2c-29.8-17.2-40-55.3-22.8-85.1s55.3-40,85.1-22.8c29.8,17.2,40,55.3,22.8,85.1C312.8,291.2,274.7,301.4,244.9,284.2
				z"/>
		</g>
	</g>
	<g>
		<rect x="9.8" y="369" class="st17" width="794.5" height="56.5"/>
		<text transform="matrix(1 0 0 1 9.7501 381.1796)"><tspan x="0" y="0" class="st8 st18 st19">Los </tspan><tspan x="32.1" y="0" class="st8 st20 st19">collarines</tspan><tspan x="111.5" y="0" class="st8 st18 st19"> son los elementos de sujeción de los discos, y que evitarán que durante el ejercicio se </tspan><tspan x="0" y="22" class="st8 st18 st19">deslicen por la barra. El sistema más común de cierre es un tornillo rápido que apretará el collarín a la </tspan><tspan x="0" y="44" class="st8 st18 st19">barra y mantendrá los discos en posición.  </tspan></text>
	</g>
</g>
</svg>
