<?xml version="1.0" encoding="utf-8"?>
<!-- Generator: Adobe Illustrator 22.0.1, SVG Export Plug-In . SVG Version: 6.00 Build 0)  -->
<svg version="1.1" id="Layer_1" xmlns="http://www.w3.org/2000/svg" xmlns:xlink="http://www.w3.org/1999/xlink" x="0px" y="0px"
	 viewBox="0 0 815 440" style="enable-background:new 0 0 815 440;" xml:space="preserve">
<style type="text/css">
	.st0{fill:#CD1719;}
	.st1{fill:url(#SVGID_1_);}
	.st2{fill:url(#SVGID_2_);}
	.st3{fill:url(#SVGID_3_);}
	.st4{fill:url(#SVGID_4_);}
	.st5{fill:#1D1D1B;}
	.st6{font-family:'RobotoSlab-Regular';}
	.st7{font-size:29px;}
	.st8{fill:#9D9D9C;}
	.st9{fill:#FFFFFF;}
	.st10{font-size:22px;}
	.st11{fill:#B2B2B2;}
	.st12{fill:#C6C6C6;}
	.st13{fill:#EDEDED;}
	.st14{fill:#F6F6F6;}
	.st15{fill:none;}
	.st16{font-family:'ArialMT';}
	.st17{font-size:17px;}
	.st18{font-family:'Arial-BoldMT';}
</style>
<g>
	<rect class="st0" width="815" height="440"/>
	<linearGradient id="SVGID_1_" gradientUnits="userSpaceOnUse" x1="118.7421" y1="137.8202" x2="317.2538" y2="137.8202">
		<stop  offset="0" style="stop-color:#FFFFFF"/>
		<stop  offset="0.7386" style="stop-color:#EDEDED"/>
	</linearGradient>
	<path class="st1" d="M317.3,137.8c0-54.8-44.4-99.3-99.3-99.3s-99.3,44.4-99.3,99.3s44.4,99.3,99.3,99.3S317.3,192.6,317.3,137.8z
		 M229,137.8c0,6.1-4.9,11-11,11c-6.1,0-11-4.9-11-11c0-6.1,4.9-11,11-11C224.1,126.8,229,131.7,229,137.8z"/>
	<linearGradient id="SVGID_2_" gradientUnits="userSpaceOnUse" x1="245.0768" y1="137.8202" x2="443.5885" y2="137.8202">
		<stop  offset="0" style="stop-color:#DADADA"/>
		<stop  offset="0.7386" style="stop-color:#EDEDED"/>
	</linearGradient>
	<path class="st2" d="M443.6,137.8c0-54.8-44.4-99.3-99.3-99.3s-99.3,44.4-99.3,99.3s44.4,99.3,99.3,99.3S443.6,192.6,443.6,137.8z
		 M355.4,137.8c0,6.1-4.9,11-11,11c-6.1,0-11-4.9-11-11c0-6.1,4.9-11,11-11C350.4,126.8,355.4,131.7,355.4,137.8z"/>
	<linearGradient id="SVGID_3_" gradientUnits="userSpaceOnUse" x1="371.4115" y1="137.8202" x2="569.9232" y2="137.8202">
		<stop  offset="0" style="stop-color:#C6C6C6"/>
		<stop  offset="0.7386" style="stop-color:#DADADA"/>
	</linearGradient>
	<path class="st3" d="M569.9,137.8c0-54.8-44.4-99.3-99.3-99.3s-99.3,44.4-99.3,99.3s44.4,99.3,99.3,99.3S569.9,192.6,569.9,137.8z
		 M481.7,137.8c0,6.1-4.9,11-11,11c-6.1,0-11-4.9-11-11c0-6.1,4.9-11,11-11C476.8,126.8,481.7,131.7,481.7,137.8z"/>
	<linearGradient id="SVGID_4_" gradientUnits="userSpaceOnUse" x1="497.7462" y1="137.8202" x2="696.2579" y2="137.8202">
		<stop  offset="0" style="stop-color:#B2B2B2"/>
		<stop  offset="0.7386" style="stop-color:#DADADA"/>
	</linearGradient>
	<path class="st4" d="M696.3,137.8c0-54.8-44.4-99.3-99.3-99.3s-99.3,44.4-99.3,99.3s44.4,99.3,99.3,99.3S696.3,192.6,696.3,137.8z
		 M608,137.8c0,6.1-4.9,11-11,11c-6.1,0-11-4.9-11-11c0-6.1,4.9-11,11-11C603.1,126.8,608,131.7,608,137.8z"/>
	<g>
		<text transform="matrix(1 0 0 1 139.0898 147.234)" class="st5 st6 st7">25 k</text>
	</g>
	<g>
		<text transform="matrix(1 0 0 1 264.853 147.234)" class="st5 st6 st7">20 k</text>
	</g>
	<g>
		<text transform="matrix(1 0 0 1 393.8793 147.234)" class="st5 st6 st7">15 k</text>
	</g>
	<g>
		<text transform="matrix(1 0 0 1 519.6422 147.234)" class="st5 st6 st7">10 k</text>
	</g>
	<path class="st8" d="M238.4,235.8c0-31.7-25.7-57.3-57.3-57.3s-57.3,25.7-57.3,57.3s25.7,57.3,57.3,57.3S238.4,267.4,238.4,235.8z
		 M192,235.8c0,6.1-4.9,11-11,11c-6.1,0-11-4.9-11-11c0-6.1,4.9-11,11-11C187.1,224.7,192,229.7,192,235.8z"/>
	<ellipse transform="matrix(0.2359 -0.9718 0.9718 0.2359 -90.7949 356.0603)" class="st0" cx="181" cy="235.8" rx="11" ry="11"/>
	<g>
		<text transform="matrix(1 0 0 1 169.648 315.823)" class="st9 st6 st10">5 k</text>
	</g>
	<path class="st11" d="M343.5,244.6c0-26.8-21.7-48.5-48.5-48.5c-26.8,0-48.5,21.7-48.5,48.5s21.7,48.5,48.5,48.5
		C321.8,293.1,343.5,271.4,343.5,244.6z M306,244.6c0,6.1-4.9,11-11,11c-6.1,0-11-4.9-11-11c0-6.1,4.9-11,11-11
		C301.1,233.6,306,238.5,306,244.6z"/>
	<g>
		<text transform="matrix(1 0 0 1 274.3085 315.823)" class="st9 st6 st10">2,5 k</text>
	</g>
	<path class="st12" d="M438.7,251.2c0-23.1-18.8-41.9-41.9-41.9c-23.1,0-41.9,18.8-41.9,41.9s18.8,41.9,41.9,41.9
		C420,293.1,438.7,274.4,438.7,251.2z M407.8,251.2c0,6.1-4.9,11-11,11c-6.1,0-11-4.9-11-11c0-6.1,4.9-11,11-11
		C402.9,240.2,407.8,245.1,407.8,251.2z"/>
	<g>
		<text transform="matrix(1 0 0 1 383.6558 315.823)" class="st9 st6 st10">2 k</text>
	</g>
	<path class="st13" d="M524.1,254.5c0-21.3-17.3-38.6-38.6-38.6s-38.6,17.3-38.6,38.6c0,21.3,17.3,38.6,38.6,38.6
		S524.1,275.8,524.1,254.5z M496.5,254.5c0,6.1-4.9,11-11,11c-6.1,0-11-4.9-11-11c0-6.1,4.9-11,11-11
		C491.6,243.5,496.5,248.4,496.5,254.5z"/>
	<g>
		<text transform="matrix(1 0 0 1 467.5156 315.823)" class="st9 st6 st10">1,5 k</text>
	</g>
	<path class="st14" d="M601.2,257.8c0-19.5-15.8-35.3-35.3-35.3c-19.5,0-35.3,15.8-35.3,35.3c0,19.5,15.8,35.3,35.3,35.3
		C585.4,293.1,601.2,277.3,601.2,257.8z M576.9,257.8c0,6.1-4.9,11-11,11s-11-4.9-11-11c0-6.1,4.9-11,11-11S576.9,251.7,576.9,257.8
		z"/>
	<g>
		<text transform="matrix(1 0 0 1 552.8977 315.823)" class="st9 st6 st10">1 k</text>
	</g>
	<path class="st9" d="M670.7,262.9c0-16.7-13.5-30.2-30.2-30.2c-16.7,0-30.2,13.5-30.2,30.2c0,16.7,13.5,30.2,30.2,30.2
		C657.2,293.1,670.7,279.6,670.7,262.9z M651.5,262.9c0,6.1-4.9,11-11,11s-11-4.9-11-11c0-6.1,4.9-11,11-11S651.5,256.8,651.5,262.9
		z"/>
	<g>
		<rect x="9.8" y="369" class="st15" width="794.5" height="56.5"/>
		<text transform="matrix(1 0 0 1 9.7501 381.1796)"><tspan x="0" y="0" class="st9 st16 st17">Un total de </tspan><tspan x="86.9" y="0" class="st9 st18 st17">10 discos</tspan><tspan x="164.4" y="0" class="st9 st16 st17"> se irán incorporando a los costados de la barra para componer el peso que la </tspan><tspan x="0" y="22" class="st9 st16 st17">atleta levantará. Números a ambos lados indicarán el peso de cada uno, que va desde 25 kilos el mayor, </tspan><tspan x="0" y="44" class="st9 st16 st17">hasta 0,5 kilos el menor. Los discos más pesados siempre se colocan hacia el interior de la barra.</tspan></text>
	</g>
</g>
<g>
	<text transform="matrix(1 0 0 1 617.8981 315.823)" class="st9 st6 st10">0,5 k</text>
</g>
</svg>
