<?xml version="1.0" encoding="utf-8"?>
<!-- Generator: Adobe Illustrator 22.0.1, SVG Export Plug-In . SVG Version: 6.00 Build 0)  -->
<svg version="1.1" id="Layer_1" xmlns="http://www.w3.org/2000/svg" xmlns:xlink="http://www.w3.org/1999/xlink" x="0px" y="0px"
	 viewBox="0 0 500 780" style="enable-background:new 0 0 500 780;" xml:space="preserve">
<style type="text/css">
	.st0{fill:#CD1719;}
	.st1{fill:#1E1E1C;}
	.st2{fill:#E4886D;}
	.st3{fill:#888483;}
	.st4{fill:none;}
	.st5{font-family:'Arial-BoldMT';}
	.st6{font-size:13px;}
	.st7{font-family:'ArialMT';}
	.st8{fill:#1D1D1B;}
</style>
<g>
	<g>
		<ellipse class="st0" cx="485.3" cy="19.7" rx="14.7" ry="14.7"/>
	</g>
	<g>
		<ellipse class="st0" cx="442.5" cy="19.7" rx="14.7" ry="14.7"/>
	</g>
	<g>
		<ellipse class="st0" cx="399.7" cy="19.7" rx="14.7" ry="14.7"/>
	</g>
	<g>
		<ellipse class="st0" cx="356.9" cy="19.7" rx="14.7" ry="14.7"/>
	</g>
	<g>
		<ellipse class="st0" cx="314.1" cy="19.7" rx="14.7" ry="14.7"/>
	</g>
	<g>
		<ellipse class="st0" cx="228.6" cy="19.7" rx="14.7" ry="14.7"/>
		<ellipse class="st0" cx="185.8" cy="19.7" rx="14.7" ry="14.7"/>
		<g>
			<ellipse class="st0" cx="228.6" cy="62.5" rx="14.7" ry="14.7"/>
		</g>
		<g>
			<ellipse class="st0" cx="185.8" cy="62.5" rx="14.7" ry="14.7"/>
		</g>
		<ellipse class="st0" cx="143" cy="19.7" rx="14.7" ry="14.7"/>
		<g>
			<ellipse class="st0" cx="143" cy="62.5" rx="14.7" ry="14.7"/>
		</g>
		<g>
			<ellipse class="st0" cx="228.6" cy="105.3" rx="14.7" ry="14.7"/>
		</g>
		<g>
			<ellipse class="st0" cx="185.8" cy="105.3" rx="14.7" ry="14.7"/>
		</g>
		<g>
			<ellipse class="st0" cx="143" cy="105.3" rx="14.7" ry="14.7"/>
		</g>
		<ellipse class="st0" cx="100.2" cy="19.7" rx="14.7" ry="14.7"/>
		<g>
			<ellipse class="st0" cx="100.2" cy="62.5" rx="14.7" ry="14.7"/>
		</g>
		<ellipse class="st0" cx="57.4" cy="19.7" rx="14.7" ry="14.7"/>
		<g>
			<ellipse class="st0" cx="57.4" cy="62.5" rx="14.7" ry="14.7"/>
		</g>
		<g>
			<ellipse class="st0" cx="100.2" cy="105.3" rx="14.7" ry="14.7"/>
		</g>
		<g>
			<ellipse class="st0" cx="57.4" cy="105.3" rx="14.7" ry="14.7"/>
		</g>
		<g>
			<ellipse class="st0" cx="228.6" cy="148.1" rx="14.7" ry="14.7"/>
		</g>
		<g>
			<ellipse class="st0" cx="185.8" cy="148.1" rx="14.7" ry="14.7"/>
		</g>
		<g>
			<ellipse class="st0" cx="143" cy="148.1" rx="14.7" ry="14.7"/>
		</g>
		<g>
			<ellipse class="st0" cx="228.6" cy="190.9" rx="14.7" ry="14.7"/>
		</g>
		<g>
			<ellipse class="st0" cx="185.8" cy="190.9" rx="14.7" ry="14.7"/>
		</g>
		<g>
			<ellipse class="st0" cx="143" cy="190.9" rx="14.7" ry="14.7"/>
		</g>
		<g>
			<ellipse class="st0" cx="100.2" cy="148.1" rx="14.7" ry="14.7"/>
		</g>
		<g>
			<ellipse class="st0" cx="57.4" cy="148.1" rx="14.7" ry="14.7"/>
		</g>
		<g>
			<ellipse class="st0" cx="100.2" cy="190.9" rx="14.7" ry="14.7"/>
		</g>
		<g>
			<ellipse class="st0" cx="57.4" cy="190.9" rx="14.7" ry="14.7"/>
		</g>
		<ellipse class="st0" cx="14.7" cy="19.7" rx="14.7" ry="14.7"/>
		<g>
			<ellipse class="st0" cx="14.7" cy="62.5" rx="14.7" ry="14.7"/>
		</g>
		<g>
			<ellipse class="st0" cx="14.7" cy="105.3" rx="14.7" ry="14.7"/>
		</g>
		<g>
			<ellipse class="st0" cx="14.7" cy="148.1" rx="14.7" ry="14.7"/>
		</g>
		<g>
			<ellipse class="st0" cx="14.7" cy="190.9" rx="14.7" ry="14.7"/>
		</g>
		<g>
			<ellipse class="st0" cx="228.6" cy="233.7" rx="14.7" ry="14.7"/>
		</g>
		<g>
			<ellipse class="st0" cx="185.8" cy="233.7" rx="14.7" ry="14.7"/>
		</g>
		<g>
			<ellipse class="st0" cx="143" cy="233.7" rx="14.7" ry="14.7"/>
		</g>
		<g>
			<ellipse class="st0" cx="100.2" cy="233.7" rx="14.7" ry="14.7"/>
		</g>
		<g>
			<ellipse class="st0" cx="57.4" cy="233.7" rx="14.7" ry="14.7"/>
		</g>
		<g>
			<ellipse class="st0" cx="14.7" cy="233.7" rx="14.7" ry="14.7"/>
		</g>
		<g>
			<ellipse class="st0" cx="228.6" cy="276.4" rx="14.7" ry="14.7"/>
		</g>
		<g>
			<ellipse class="st0" cx="185.8" cy="276.4" rx="14.7" ry="14.7"/>
		</g>
		<g>
			<ellipse class="st0" cx="143" cy="276.4" rx="14.7" ry="14.7"/>
		</g>
		<g>
			<ellipse class="st0" cx="228.6" cy="319.2" rx="14.7" ry="14.7"/>
		</g>
		<g>
			<ellipse class="st0" cx="185.8" cy="319.2" rx="14.7" ry="14.7"/>
		</g>
		<g>
			<ellipse class="st0" cx="143" cy="319.2" rx="14.7" ry="14.7"/>
		</g>
		<g>
			<ellipse class="st0" cx="100.2" cy="276.4" rx="14.7" ry="14.7"/>
		</g>
		<g>
			<ellipse class="st0" cx="57.4" cy="276.4" rx="14.7" ry="14.7"/>
		</g>
		<g>
			<ellipse class="st0" cx="100.2" cy="319.2" rx="14.7" ry="14.7"/>
		</g>
		<g>
			<ellipse class="st0" cx="57.4" cy="319.2" rx="14.7" ry="14.7"/>
		</g>
		<g>
			<ellipse class="st0" cx="228.6" cy="362" rx="14.7" ry="14.7"/>
		</g>
		<g>
			<ellipse class="st0" cx="185.8" cy="362" rx="14.7" ry="14.7"/>
		</g>
		<g>
			<ellipse class="st0" cx="143" cy="362" rx="14.7" ry="14.7"/>
		</g>
		<g>
			<ellipse class="st0" cx="100.2" cy="362" rx="14.7" ry="14.7"/>
		</g>
		<g>
			<ellipse class="st0" cx="57.4" cy="362" rx="14.7" ry="14.7"/>
		</g>
		<g>
			<ellipse class="st0" cx="14.7" cy="276.4" rx="14.7" ry="14.7"/>
		</g>
		<g>
			<ellipse class="st0" cx="14.7" cy="319.2" rx="14.7" ry="14.7"/>
		</g>
		<g>
			<ellipse class="st0" cx="14.7" cy="362" rx="14.7" ry="14.7"/>
		</g>
	</g>
	<g>
		<ellipse class="st0" cx="271.4" cy="19.7" rx="14.7" ry="14.7"/>
	</g>
	<g>
		<ellipse class="st0" cx="485.3" cy="62.5" rx="14.7" ry="14.7"/>
	</g>
	<g>
		<ellipse class="st0" cx="442.5" cy="62.5" rx="14.7" ry="14.7"/>
	</g>
	<g>
		<ellipse class="st0" cx="399.7" cy="62.5" rx="14.7" ry="14.7"/>
	</g>
	<g>
		<ellipse class="st0" cx="356.9" cy="62.5" rx="14.7" ry="14.7"/>
	</g>
	<g>
		<ellipse class="st0" cx="314.1" cy="62.5" rx="14.7" ry="14.7"/>
	</g>
	<g>
		<ellipse class="st0" cx="271.4" cy="62.5" rx="14.7" ry="14.7"/>
	</g>
	<g>
		<ellipse class="st0" cx="485.3" cy="105.2" rx="14.7" ry="14.7"/>
	</g>
	<g>
		<ellipse class="st0" cx="442.5" cy="105.2" rx="14.7" ry="14.7"/>
	</g>
	<g>
		<ellipse class="st0" cx="399.7" cy="105.2" rx="14.7" ry="14.7"/>
	</g>
	<g>
		<ellipse class="st0" cx="485.3" cy="148" rx="14.7" ry="14.7"/>
	</g>
	<g>
		<ellipse class="st0" cx="442.5" cy="148" rx="14.7" ry="14.7"/>
	</g>
	<g>
		<ellipse class="st0" cx="399.7" cy="148" rx="14.7" ry="14.7"/>
	</g>
	<g>
		<ellipse class="st0" cx="356.9" cy="105.2" rx="14.7" ry="14.7"/>
	</g>
	<g>
		<ellipse class="st0" cx="314.1" cy="105.2" rx="14.7" ry="14.7"/>
	</g>
	<g>
		<ellipse class="st0" cx="356.9" cy="148" rx="14.7" ry="14.7"/>
	</g>
	<g>
		<ellipse class="st0" cx="314.1" cy="148" rx="14.7" ry="14.7"/>
	</g>
	<g>
		<ellipse class="st0" cx="485.3" cy="190.8" rx="14.7" ry="14.7"/>
	</g>
	<g>
		<ellipse class="st0" cx="442.5" cy="190.8" rx="14.7" ry="14.7"/>
	</g>
	<g>
		<ellipse class="st0" cx="399.7" cy="190.8" rx="14.7" ry="14.7"/>
	</g>
	<g>
		<ellipse class="st0" cx="485.3" cy="233.6" rx="14.7" ry="14.7"/>
	</g>
	<g>
		<ellipse class="st0" cx="442.5" cy="233.6" rx="14.7" ry="14.7"/>
	</g>
	<g>
		<ellipse class="st0" cx="399.7" cy="233.6" rx="14.7" ry="14.7"/>
	</g>
	<g>
		<ellipse class="st0" cx="356.9" cy="190.8" rx="14.7" ry="14.7"/>
	</g>
	<g>
		<ellipse class="st0" cx="314.1" cy="190.8" rx="14.7" ry="14.7"/>
	</g>
	<g>
		<ellipse class="st0" cx="356.9" cy="233.6" rx="14.7" ry="14.7"/>
	</g>
	<g>
		<ellipse class="st0" cx="314.1" cy="233.6" rx="14.7" ry="14.7"/>
	</g>
	<g>
		<ellipse class="st0" cx="271.4" cy="105.2" rx="14.7" ry="14.7"/>
	</g>
	<g>
		<ellipse class="st0" cx="271.4" cy="148" rx="14.7" ry="14.7"/>
	</g>
	<g>
		<ellipse class="st0" cx="271.4" cy="190.8" rx="14.7" ry="14.7"/>
	</g>
	<g>
		<ellipse class="st0" cx="271.4" cy="233.6" rx="14.7" ry="14.7"/>
	</g>
	<g>
		<ellipse class="st0" cx="485.3" cy="276.4" rx="14.7" ry="14.7"/>
	</g>
	<g>
		<ellipse class="st0" cx="442.5" cy="276.4" rx="14.7" ry="14.7"/>
	</g>
	<g>
		<ellipse class="st0" cx="399.7" cy="276.4" rx="14.7" ry="14.7"/>
	</g>
	<g>
		<ellipse class="st0" cx="356.9" cy="276.4" rx="14.7" ry="14.7"/>
	</g>
	<g>
		<ellipse class="st0" cx="314.1" cy="276.4" rx="14.7" ry="14.7"/>
	</g>
	<g>
		<ellipse class="st0" cx="271.4" cy="276.4" rx="14.7" ry="14.7"/>
	</g>
	<g>
		<ellipse class="st0" cx="485.3" cy="319.1" rx="14.7" ry="14.7"/>
	</g>
	<g>
		<ellipse class="st0" cx="442.5" cy="319.1" rx="14.7" ry="14.7"/>
	</g>
	<g>
		<ellipse class="st0" cx="399.7" cy="319.1" rx="14.7" ry="14.7"/>
	</g>
	<g>
		<ellipse class="st0" cx="485.3" cy="361.9" rx="14.7" ry="14.7"/>
	</g>
	<g>
		<ellipse class="st0" cx="442.5" cy="361.9" rx="14.7" ry="14.7"/>
	</g>
	<g>
		<ellipse class="st0" cx="399.7" cy="361.9" rx="14.7" ry="14.7"/>
	</g>
	<g>
		<ellipse class="st0" cx="356.9" cy="319.1" rx="14.7" ry="14.7"/>
	</g>
	<g>
		<ellipse class="st0" cx="314.1" cy="319.1" rx="14.7" ry="14.7"/>
	</g>
	<g>
		<ellipse class="st0" cx="356.9" cy="361.9" rx="14.7" ry="14.7"/>
	</g>
	<g>
		<ellipse class="st0" cx="314.1" cy="361.9" rx="14.7" ry="14.7"/>
	</g>
	<g>
		<g>
			<ellipse class="st0" cx="314.2" cy="404.7" rx="14.7" ry="14.7"/>
		</g>
		<g>
			<ellipse class="st0" cx="271.4" cy="404.7" rx="14.7" ry="14.7"/>
		</g>
	</g>
	<g>
		<ellipse class="st0" cx="271.4" cy="319.1" rx="14.7" ry="14.7"/>
	</g>
	<g>
		<ellipse class="st0" cx="271.4" cy="361.9" rx="14.7" ry="14.7"/>
	</g>
	<g>
		<g>
			<ellipse class="st0" cx="228.6" cy="404.7" rx="14.7" ry="14.7"/>
		</g>
		<g>
			<ellipse class="st0" cx="185.8" cy="404.7" rx="14.7" ry="14.7"/>
		</g>
		<g>
			<ellipse class="st0" cx="143" cy="404.7" rx="14.7" ry="14.7"/>
		</g>
		<g>
			<ellipse class="st0" cx="100.2" cy="404.7" rx="14.7" ry="14.7"/>
		</g>
		<g>
			<ellipse class="st0" cx="57.4" cy="404.7" rx="14.7" ry="14.7"/>
		</g>
		<g>
			<ellipse class="st0" cx="14.7" cy="404.7" rx="14.7" ry="14.7"/>
		</g>
	</g>
	<g>
		<g>
			<ellipse class="st1" cx="485.3" cy="404.7" rx="14.7" ry="14.7"/>
		</g>
		<g>
			<ellipse class="st1" cx="442.5" cy="404.7" rx="14.7" ry="14.7"/>
		</g>
		<g>
			<ellipse class="st1" cx="399.7" cy="404.7" rx="14.7" ry="14.7"/>
		</g>
		<g>
			<ellipse class="st1" cx="357" cy="404.7" rx="14.7" ry="14.7"/>
		</g>
	</g>
	<g>
		<g>
			<ellipse class="st1" cx="228.6" cy="448.1" rx="14.7" ry="14.7"/>
		</g>
		<g>
			<ellipse class="st1" cx="185.8" cy="448.1" rx="14.7" ry="14.7"/>
		</g>
		<g>
			<ellipse class="st1" cx="143" cy="448.1" rx="14.7" ry="14.7"/>
		</g>
		<g>
			<ellipse class="st1" cx="100.2" cy="448.1" rx="14.7" ry="14.7"/>
		</g>
		<g>
			<ellipse class="st1" cx="57.4" cy="448.1" rx="14.7" ry="14.7"/>
		</g>
		<g>
			<ellipse class="st1" cx="14.7" cy="448.1" rx="14.7" ry="14.7"/>
		</g>
	</g>
	<g>
		<g>
			<ellipse class="st2" cx="485.3" cy="448.1" rx="14.7" ry="14.7"/>
		</g>
	</g>
	<g>
		<g>
			<ellipse class="st2" cx="442.5" cy="448.1" rx="14.7" ry="14.7"/>
		</g>
	</g>
	<g>
		<g>
			<ellipse class="st2" cx="399.7" cy="448.1" rx="14.7" ry="14.7"/>
		</g>
	</g>
	<g>
		<g>
			<ellipse class="st2" cx="356.9" cy="448.1" rx="14.7" ry="14.7"/>
		</g>
	</g>
	<g>
		<g>
			<ellipse class="st2" cx="314.1" cy="448.1" rx="14.7" ry="14.7"/>
		</g>
	</g>
	<g>
		<g>
			<ellipse class="st2" cx="271.4" cy="448.1" rx="14.7" ry="14.7"/>
		</g>
	</g>
	<g>
		<g>
			<g>
				<ellipse class="st2" cx="14.7" cy="490.1" rx="14.7" ry="14.7"/>
			</g>
		</g>
		<g>
			<g>
				<ellipse class="st2" cx="57.5" cy="490.1" rx="14.7" ry="14.7"/>
			</g>
		</g>
		<g>
			<g>
				<ellipse class="st3" cx="100.3" cy="490.1" rx="14.7" ry="14.7"/>
			</g>
		</g>
		<g>
			<g>
				<ellipse class="st3" cx="143.1" cy="490.1" rx="14.7" ry="14.7"/>
			</g>
		</g>
	</g>
</g>
<g>
	<g>
		<rect x="116.5" y="547.3" class="st4" width="335.5" height="35.3"/>
		<text transform="matrix(1 0 0 1 116.4636 556.5745)"><tspan x="0" y="0" class="st0 st5 st6">116 atletas clasificados</tspan><tspan x="0" y="18" class="st1 st7 st6">En condición oficial de competición.</tspan></text>
	</g>
	<g>
		<ellipse class="st0" cx="102.5" cy="551.8" rx="10" ry="10"/>
	</g>
</g>
<g>
	<g>
		<rect x="116.5" y="604.9" class="st4" width="335.5" height="35.3"/>
		<text transform="matrix(1 0 0 1 116.4636 614.2122)"><tspan x="0" y="0" class="st8 st5 st6">10 Atletas Cali 2021</tspan><tspan x="0" y="18" class="st1 st7 st6">Clasificados desde los últimos Panamericanos.</tspan></text>
	</g>
	<g>
		<ellipse class="st1" cx="102.5" cy="609.5" rx="10" ry="10"/>
	</g>
</g>
<g>
	<g>
		<rect x="116.5" y="664.2" class="st4" width="335.5" height="35.3"/>
		<text transform="matrix(1 0 0 1 116.4636 673.5463)"><tspan x="0" y="0" class="st2 st5 st6">8 Atletas anfitriones</tspan><tspan x="0" y="18" class="st1 st7 st6">Invitados directamente por ser país sede.</tspan></text>
	</g>
	<g>
		<ellipse class="st2" cx="102.5" cy="668.8" rx="10" ry="10"/>
	</g>
</g>
<g>
	<g>
		<rect x="116.5" y="721.2" class="st4" width="335.5" height="56.7"/>
		<text transform="matrix(1 0 0 1 116.4636 730.5463)"><tspan x="0" y="0" class="st3 st5 st6">2 Atletas Wild Card</tspan><tspan x="0" y="18" class="st1 st7 st6">Invitados por la Federación Panamericana</tspan><tspan x="0" y="36" class="st1 st7 st6">de Levantamiento de Pesas.</tspan></text>
	</g>
	<g>
		<ellipse class="st3" cx="102.5" cy="725.8" rx="10" ry="10"/>
	</g>
</g>
</svg>
